<?xml version="1.0" encoding="UTF-8"?>
<svg version="1.1" xmlns="http://www.w3.org/2000/svg" width="461" height="362">
<path d="M0 0 C1.34021461 -0.00361794 1.34021461 -0.00361794 2.70750427 -0.00730896 C4.59109956 -0.00633187 6.47472405 0.00702886 8.3581543 0.03198242 C11.24041195 0.06633852 14.11961039 0.0526236 17.00195312 0.03320312 C18.83464846 0.0401006 20.66733589 0.04977209 22.5 0.0625 C23.36049454 0.05754013 24.22098907 0.05258026 25.1075592 0.04747009 C31.07362677 0.1649234 31.07362677 0.1649234 34.19506836 2.53930664 C36.7689793 6.15257608 36.80193066 8.30480657 36.78125 12.73046875 C36.77641602 14.54804687 36.77641602 14.54804687 36.77148438 16.40234375 C36.75891602 18.30886719 36.75891602 18.30886719 36.74609375 20.25390625 C36.74158203 21.53265625 36.73707031 22.81140625 36.73242188 24.12890625 C36.72060578 27.29561917 36.7041319 30.46223981 36.68359375 33.62890625 C37.53351395 33.61225166 37.53351395 33.61225166 38.40060425 33.59526062 C44.33852248 33.48398921 50.27614097 33.40896045 56.21484375 33.35424805 C58.4262293 33.32922141 60.63753312 33.29518935 62.84863281 33.25170898 C66.04122166 33.19053449 69.23270988 33.16257711 72.42578125 33.140625 C73.40223602 33.11481857 74.3786908 33.08901215 75.38473511 33.06242371 C83.50183179 33.05916334 89.89425684 35.42254425 96.12109375 40.69140625 C96.89453125 41.65046875 96.89453125 41.65046875 97.68359375 42.62890625 C98.48796875 43.58796875 98.48796875 43.58796875 99.30859375 44.56640625 C102.51133322 49.37051546 102.92457579 53.38565983 102.87890625 59.1171875 C102.87607635 59.8203862 102.87324646 60.5235849 102.87033081 61.24809265 C102.85919526 63.47937517 102.83410372 65.71024642 102.80859375 67.94140625 C102.79855535 69.46028063 102.78943101 70.97916135 102.78125 72.49804688 C102.75927788 76.20846546 102.72479422 79.91864567 102.68359375 83.62890625 C103.51213867 83.60497803 104.34068359 83.5810498 105.19433594 83.55639648 C106.27875977 83.53778564 107.36318359 83.5191748 108.48046875 83.5 C109.55651367 83.47607178 110.63255859 83.45214355 111.74121094 83.42749023 C114.68359375 83.62890625 114.68359375 83.62890625 117.93359375 85.69140625 C120.15574731 89.42144972 120.44672974 91.35534469 119.68359375 95.62890625 C117.87109375 98.50390625 117.87109375 98.50390625 114.68359375 100.62890625 C111.96606445 101.05517578 111.96606445 101.05517578 108.984375 101.26171875 C107.49611206 101.37217529 107.49611206 101.37217529 105.9777832 101.48486328 C105.22070068 101.53239746 104.46361816 101.57993164 103.68359375 101.62890625 C103.6695752 102.9746875 103.6695752 102.9746875 103.65527344 104.34765625 C103.61098124 107.71038964 103.54924713 111.07189972 103.47607422 114.43408203 C103.44803339 115.88285841 103.42673564 117.33178297 103.41259766 118.78076172 C103.31254506 128.45918258 102.93705597 135.70384473 96.30859375 143.37890625 C91.15326805 147.79775685 86.92296077 150.74057759 80.04878235 150.77607727 C79.09700607 150.78323257 78.1452298 150.79038788 77.16461182 150.79776001 C75.60066681 150.80179337 75.60066681 150.80179337 74.00512695 150.8059082 C72.90563217 150.8124794 71.80613739 150.8190506 70.67332458 150.82582092 C67.02700739 150.84556523 63.38073141 150.85721954 59.734375 150.8671875 C58.48939932 150.87126303 57.24442364 150.87533855 55.96172142 150.87953758 C50.05104704 150.89825188 44.14038576 150.91281583 38.22968894 150.92114955 C31.41914109 150.93091176 24.60891914 150.95720575 17.79848605 150.99765044 C11.89051247 151.03152468 5.98261812 151.04330084 0.07454491 151.04735374 C-2.43363465 151.05222298 -4.94181065 151.06384647 -7.44992638 151.08239174 C-10.96386958 151.1067576 -14.47696485 151.10582216 -17.9909668 151.09887695 C-19.02347565 151.11168701 -20.0559845 151.12449707 -21.11978149 151.13769531 C-28.91521647 151.08165281 -34.15145232 149.36227556 -40.06640625 144.25390625 C-45.43506053 137.99047626 -47.47555516 133.49094424 -47.4140625 125.3359375 C-47.41264755 124.62990891 -47.4112326 123.92388031 -47.40977478 123.19645691 C-47.40418389 120.94472999 -47.39163313 118.69310304 -47.37890625 116.44140625 C-47.37389007 114.9134129 -47.36932737 113.38541798 -47.36523438 111.85742188 C-47.35421745 108.1145449 -47.33695912 104.37174252 -47.31640625 100.62890625 C-48.14495117 100.65283447 -48.97349609 100.6767627 -49.82714844 100.70141602 C-50.91157227 100.72002686 -51.99599609 100.7386377 -53.11328125 100.7578125 C-54.18932617 100.78174072 -55.26537109 100.80566895 -56.37402344 100.83032227 C-59.31640625 100.62890625 -59.31640625 100.62890625 -62.56640625 98.56640625 C-64.78855981 94.83636278 -65.07954224 92.90246781 -64.31640625 88.62890625 C-62.56640625 85.69140625 -62.56640625 85.69140625 -59.31640625 83.62890625 C-56.37402344 83.42749023 -56.37402344 83.42749023 -53.11328125 83.5 C-52.02885742 83.51861084 -50.94443359 83.53722168 -49.82714844 83.55639648 C-48.58433105 83.59228882 -48.58433105 83.59228882 -47.31640625 83.62890625 C-47.33735352 82.70142578 -47.35830078 81.77394531 -47.37988281 80.81835938 C-47.44846124 77.34429796 -47.49839952 73.87096614 -47.53613281 70.39648438 C-47.55612544 68.89897235 -47.58332924 67.40153717 -47.61816406 65.90429688 C-47.834204 56.37312309 -47.96069633 49.0392648 -41.421875 41.421875 C-40.78894531 40.89207031 -40.15601562 40.36226562 -39.50390625 39.81640625 C-38.87871094 39.27371094 -38.25351563 38.73101562 -37.609375 38.171875 C-30.85853742 33.62914784 -25.31342906 33.21165522 -17.3515625 33.3359375 C-16.31825302 33.34018234 -15.28494354 33.34442719 -14.22032166 33.34880066 C-10.93957803 33.36551231 -7.65946233 33.40315114 -4.37890625 33.44140625 C-2.14649328 33.45646277 0.08592937 33.47014948 2.31835938 33.48242188 C7.77367721 33.51539132 13.22852924 33.56712211 18.68359375 33.62890625 C18.68359375 28.34890625 18.68359375 23.06890625 18.68359375 17.62890625 C16.7809375 17.65210937 14.87828125 17.6753125 12.91796875 17.69921875 C10.423181 17.71797655 7.92838902 17.73617674 5.43359375 17.75390625 C4.17933594 17.77066406 2.92507812 17.78742188 1.6328125 17.8046875 C0.42753906 17.81113281 -0.77773437 17.81757812 -2.01953125 17.82421875 C-3.68483887 17.8399292 -3.68483887 17.8399292 -5.38378906 17.85595703 C-8.28546364 17.63130191 -9.89963113 17.20296239 -12.31640625 15.62890625 C-14.61609188 12.40934637 -14.86989263 9.50331093 -14.31640625 5.62890625 C-10.16891334 -0.026198 -6.51348647 -0.10059424 0 0 Z M-29.1056366 54.32214355 C-30.77131615 57.49560223 -30.6905365 59.95884954 -30.6887207 63.53710938 C-30.69237137 64.22377182 -30.69602203 64.91043427 -30.69978333 65.61790466 C-30.70787335 67.88224201 -30.69429231 70.14586022 -30.6796875 72.41015625 C-30.6791687 73.98669433 -30.67968716 75.56323307 -30.68119812 77.13977051 C-30.68110847 80.4417488 -30.6706932 83.74348259 -30.65258789 87.04541016 C-30.62990089 91.27567046 -30.62935734 95.5055736 -30.63610554 99.73587799 C-30.63944873 102.99069385 -30.63280884 106.24542844 -30.6229763 109.50022888 C-30.61913006 111.05992711 -30.6179737 112.61963439 -30.61956215 114.17933655 C-30.61993346 116.35996694 -30.6072947 118.54014132 -30.59106445 120.72070312 C-30.58645706 121.96106323 -30.58184967 123.20142334 -30.57710266 124.47937012 C-30.32564822 127.51725182 -30.09699048 129.18336048 -28.31640625 131.62890625 C-25.42503262 133.37786873 -23.27229415 133.87953302 -19.9140625 133.88287354 C-19.03927246 133.88851318 -18.16448242 133.89415283 -17.26318359 133.89996338 C-16.31137207 133.89591492 -15.35956055 133.89186646 -14.37890625 133.88769531 C-12.86611084 133.89295227 -12.86611084 133.89295227 -11.32275391 133.89831543 C-7.98723478 133.90712179 -4.65192755 133.90128736 -1.31640625 133.89453125 C1.00000041 133.89587821 3.3164068 133.89781901 5.6328125 133.90032959 C10.48830862 133.90327937 15.34373118 133.89898783 20.19921875 133.88964844 C26.42706152 133.87825406 32.65473191 133.8848143 38.88256836 133.89679337 C43.66602887 133.90401585 48.44944842 133.90172223 53.23291016 133.89653778 C55.52945984 133.89520236 57.82601323 133.89684523 60.12255859 133.90149689 C63.33050404 133.90656841 66.53816921 133.89884284 69.74609375 133.88769531 C71.17381104 133.89376801 71.17381104 133.89376801 72.63037109 133.89996338 C73.94255615 133.89150391 73.94255615 133.89150391 75.28125 133.88287354 C76.41832397 133.88174246 76.41832397 133.88174246 77.57836914 133.88058853 C80.0032003 133.59069688 81.6013907 132.88852465 83.68359375 131.62890625 C86.15774653 128.22604974 85.9488412 124.83961325 85.97412109 120.73657227 C85.98083832 120.05151611 85.98755554 119.36645996 85.99447632 118.66064453 C86.01343817 116.40129295 86.01737935 114.14223864 86.01953125 111.8828125 C86.0259598 110.30866881 86.03268821 108.73452632 86.03970337 107.16038513 C86.05167111 103.86267323 86.05538465 100.56506606 86.05419922 97.26733398 C86.05399591 93.04596739 86.08131228 88.82527311 86.11574364 84.6040659 C86.13800168 81.35349962 86.14203713 78.10309554 86.14097977 74.85246086 C86.14333683 73.29635231 86.15216641 71.74023936 86.1676445 70.18420601 C86.18728626 68.00587213 86.18147561 65.82899309 86.16943359 63.65063477 C86.17228363 62.41249527 86.17513367 61.17435577 86.17807007 59.8986969 C85.58674935 55.98850971 84.52301991 54.34553512 81.68359375 51.62890625 C78.90414434 50.70261129 76.35631446 50.50191407 73.43983459 50.49519348 C72.60014633 50.4909285 71.76045807 50.48666351 70.89532471 50.48226929 C69.98248718 50.48272247 69.06964966 50.48317566 68.12915039 50.48364258 C67.16124069 50.48028397 66.19333099 50.47692535 65.1960907 50.47346497 C61.99529743 50.46396302 58.7945565 50.46201231 55.59375 50.4609375 C53.36942015 50.45772468 51.14509051 50.45436059 48.92076111 50.45085144 C44.25779734 50.44486227 39.59485211 50.44301135 34.93188477 50.44360352 C28.95525585 50.44370519 22.97874559 50.43004632 17.00214481 50.41283131 C12.40823317 50.40171691 7.81435028 50.39968413 3.22042656 50.40021324 C1.0168053 50.39903254 -1.18681669 50.39460571 -3.39042473 50.38688087 C-6.47122407 50.37709129 -9.55176491 50.37995492 -12.63256836 50.38598633 C-13.54338165 50.38036682 -14.45419495 50.37474731 -15.39260864 50.36895752 C-20.76325834 50.39569569 -25.01371858 50.44975884 -29.1056366 54.32214355 Z " fill="#09956A" transform="translate(157.31640625,101.37109375)"/>
<path d="M0 0 C2.43119623 1.87015094 3.64069173 3.28138345 5 6 C5.26640863 9.43142384 5.23156403 12.87188717 5.25 16.3125 C5.270625 17.26318359 5.29125 18.21386719 5.3125 19.19335938 C5.36148018 27.95468929 5.36148018 27.95468929 2 32 C-0.71437679 34.13272462 -2.04826833 33.99745956 -5.5625 33.8125 C-10.10367893 32.73913043 -10.10367893 32.73913043 -12 30 C-13.47410198 25.57769405 -13.22495829 21.25771583 -13.25 16.625 C-13.270625 15.67882812 -13.29125 14.73265625 -13.3125 13.7578125 C-13.36189373 4.96572901 -13.36189373 4.96572901 -10 1 C-6.80766515 -0.59616743 -3.46538503 -0.51466114 0 0 Z " fill="#059669" transform="translate(214,177)"/>
<path d="M0 0 C2.43119623 1.87015094 3.64069173 3.28138345 5 6 C5.26640863 9.43142384 5.23156403 12.87188717 5.25 16.3125 C5.270625 17.26318359 5.29125 18.21386719 5.3125 19.19335938 C5.36148018 27.95468929 5.36148018 27.95468929 2 32 C-0.71437679 34.13272462 -2.04826833 33.99745956 -5.5625 33.8125 C-10.10367893 32.73913043 -10.10367893 32.73913043 -12 30 C-13.47410198 25.57769405 -13.22495829 21.25771583 -13.25 16.625 C-13.270625 15.67882812 -13.29125 14.73265625 -13.3125 13.7578125 C-13.36189373 4.96572901 -13.36189373 4.96572901 -10 1 C-6.80766515 -0.59616743 -3.46538503 -0.51466114 0 0 Z " fill="#07956A" transform="translate(164,177)"/>
<path d="M0 0 C2.5 2 2.5 2 4 4 C3.67 4.66 3.34 5.32 3 6 C2.34 5.01 1.68 4.02 1 3 C-1.7427508 2.52885262 -4.19558897 2.82194216 -7 3 C-7.33 3.33 -7.66 3.66 -8 4 C-7.01 4.66 -6.02 5.32 -5 6 C-5.81855469 6.63679687 -6.63710937 7.27359375 -7.48046875 7.9296875 C-10.89602662 12.09190221 -10.58362398 14.92776188 -10.3125 20.125 C-10.28994141 20.93582031 -10.26738281 21.74664062 -10.24414062 22.58203125 C-10.20069894 24.08387245 -10.14694825 25.58547806 -10.0793457 27.08642578 C-10.01148194 28.72309102 -10 30.36192839 -10 32 C-13.85756064 27.1831518 -13.44774261 22.37598616 -13.375 16.5 C-13.38660156 15.56285156 -13.39820313 14.62570313 -13.41015625 13.66015625 C-13.38895417 8.67766653 -13.34912778 4.98627892 -10 1 C-6.81225917 -0.59387042 -3.46072041 -0.52663137 0 0 Z " fill="#1C8B69" transform="translate(214,177)"/>
<path d="M0 0 C0.33 0 0.66 0 1 0 C1.04630573 9.59657342 1.0818602 19.19310848 1.10362434 28.78976917 C1.11406913 33.24570978 1.12824099 37.70157404 1.15087891 42.1574707 C1.17258254 46.45628804 1.18456339 50.75503187 1.18975449 55.05389977 C1.19345471 56.69538213 1.20068017 58.3368604 1.21146011 59.97831154 C1.22594217 62.27444838 1.22797934 64.57028004 1.22705078 66.86645508 C1.231492 68.17439529 1.23593323 69.48233551 1.24050903 70.82991028 C1 74 1 74 -1 77 C-3.625 77.1875 -3.625 77.1875 -6 77 C-5.360625 76.7525 -4.72125 76.505 -4.0625 76.25 C-1.89114782 75.22481884 -1.89114782 75.22481884 -1.38392639 73.35760498 C-0.87477674 70.23103234 -0.83400128 67.19667425 -0.79467773 64.02832031 C-0.78477814 63.3352327 -0.77487854 62.64214508 -0.76467896 61.92805481 C-0.73317581 59.64477922 -0.70835098 57.36148286 -0.68359375 55.078125 C-0.66301455 53.491999 -0.64201782 51.90587836 -0.62062073 50.31976318 C-0.56549979 46.15069939 -0.51604663 41.98158692 -0.46777344 37.81243896 C-0.41748544 33.55590497 -0.36183751 29.29944142 -0.30664062 25.04296875 C-0.19918113 16.69537211 -0.0977092 8.34771643 0 0 Z " fill="#30866B" transform="translate(243,158)"/>
<path d="M0 0 C0.89821976 0.00233139 1.79643951 0.00466278 2.72187805 0.00706482 C4.61391748 0.01678277 6.50592864 0.03852493 8.39770508 0.0715332 C11.30137921 0.12110396 14.20336207 0.13302434 17.10742188 0.13867188 C18.94663271 0.15275199 20.78582878 0.16895427 22.625 0.1875 C23.93122566 0.19554405 23.93122566 0.19554405 25.26383972 0.20375061 C31.37997145 0.32528395 31.37997145 0.32528395 33.61328125 2.55859375 C19.09328125 2.55859375 4.57328125 2.55859375 -10.38671875 2.55859375 C-11.04671875 6.18859375 -11.70671875 9.81859375 -12.38671875 13.55859375 C-14.38671875 11.55859375 -14.38671875 11.55859375 -14.82421875 8.74609375 C-13.65290127 0.21220926 -7.10262447 -0.16042974 0 0 Z " fill="#1F896A" transform="translate(157.38671875,101.44140625)"/>
<path d="M0 0 C0.33 0 0.66 0 1 0 C1.05534912 0.65073486 1.11069824 1.30146973 1.16772461 1.97192383 C1.42053693 4.91912099 1.67895326 7.8658006 1.9375 10.8125 C2.02451172 11.83666016 2.11152344 12.86082031 2.20117188 13.91601562 C2.28818359 14.89892578 2.37519531 15.88183594 2.46484375 16.89453125 C2.543396 17.80050049 2.62194824 18.70646973 2.70288086 19.63989258 C2.94046098 22.14680749 2.94046098 22.14680749 4 25 C8.01804691 25.84098656 11.01803543 26.05404945 15 25 C14.67 25.66 14.34 26.32 14 27 C10.17619899 27.95595025 7.86226877 28.36406904 4.1875 26.8125 C1.27206801 24.39685635 0.13430662 22.40891978 -0.22705078 18.61816406 C-0.21134033 17.32990723 -0.21134033 17.32990723 -0.1953125 16.015625 C-0.18886719 15.08105469 -0.18242187 14.14648438 -0.17578125 13.18359375 C-0.15902344 12.21550781 -0.14226562 11.24742187 -0.125 10.25 C-0.11597656 9.26644531 -0.10695312 8.28289062 -0.09765625 7.26953125 C-0.07412785 4.84610593 -0.04125368 2.42317778 0 0 Z " fill="#268367" transform="translate(151,183)"/>
<path d="M0 0 C2.47807047 2.47807047 2.25650238 3.23592468 2.265625 6.6484375 C2.26820313 7.57140625 2.27078125 8.494375 2.2734375 9.4453125 C2.26570312 10.41210938 2.25796875 11.37890625 2.25 12.375 C2.25773438 13.3340625 2.26546875 14.293125 2.2734375 15.28125 C2.27085937 16.20679688 2.26828125 17.13234375 2.265625 18.0859375 C2.26336914 18.9320459 2.26111328 19.7781543 2.25878906 20.64990234 C1.98068921 23.17536387 1.2679848 24.81722775 0 27 C-0.99384397 23.74741974 -1.04826731 20.96534629 -0.87890625 17.578125 C-0.83056641 16.55332031 -0.78222656 15.52851563 -0.73242188 14.47265625 C-0.67634766 13.40917969 -0.62027344 12.34570312 -0.5625 11.25 C-0.51029297 10.17105469 -0.45808594 9.09210938 -0.40429688 7.98046875 C-0.27480531 5.32000578 -0.13984639 2.65993548 0 0 Z " fill="#208768" transform="translate(167,181)"/>
<path d="M0 0 C0.33 0 0.66 0 1 0 C1.08745946 3.3956697 1.14054444 6.79104773 1.1875 10.1875 C1.22520508 11.62706055 1.22520508 11.62706055 1.26367188 13.09570312 C1.35597529 21.98759922 1.35597529 21.98759922 -2 26 C-4.83423931 28.22690231 -6.06857668 27.99314233 -9.75 27.625 C-11.35875 27.315625 -11.35875 27.315625 -13 27 C-13 26.67 -13 26.34 -13 26 C-10.03 26 -7.06 26 -4 26 C-3.67 24.68 -3.34 23.36 -3 22 C-2.34 21.01 -1.68 20.02 -1 19 C-0.63566627 16.87662229 -0.63566627 16.87662229 -0.5859375 14.55078125 C-0.52792969 13.27944336 -0.52792969 13.27944336 -0.46875 11.98242188 C-0.4378125 11.10134766 -0.406875 10.22027344 -0.375 9.3125 C-0.33632812 8.41982422 -0.29765625 7.52714844 -0.2578125 6.60742188 C-0.16359782 4.4051538 -0.07798412 2.20289278 0 0 Z " fill="#268669" transform="translate(218,183)"/>
<path d="M0 0 C0.33 0 0.66 0 1 0 C1.09961729 4.41074704 1.17181669 8.82088095 1.21972656 13.23242188 C1.23971919 14.7299339 1.26692299 16.22736908 1.30175781 17.72460938 C1.64901503 33.04478067 1.64901503 33.04478067 -3 40 C-4.60031344 36.79937313 -3.03173691 34.27728194 -2 31 C-1.34 31 -0.68 31 0 31 C0 20.77 0 10.54 0 0 Z " fill="#198D6A" transform="translate(259,202)"/>
<path d="M0 0 C5.67023649 1.35005631 8.17957309 3.8157229 12 8 C11.67 8.66 11.34 9.32 11 10 C9.0625 9.1875 9.0625 9.1875 7 8 C6.67 7.01 6.34 6.02 6 5 C2.99152582 3.77479736 2.99152582 3.77479736 0 3 C0 2.01 0 1.02 0 0 Z " fill="#198D6A" transform="translate(244,137)"/>
<path d="M0 0 C0 0.33 0 0.66 0 1 C-1.03060547 1.03867188 -1.03060547 1.03867188 -2.08203125 1.078125 C-2.98308594 1.13484375 -3.88414063 1.1915625 -4.8125 1.25 C-5.70582031 1.29640625 -6.59914063 1.3428125 -7.51953125 1.390625 C-10.64680715 2.15890065 -11.26045885 3.38807635 -13 6 C-13.66 6 -14.32 6 -15 6 C-15 7.98 -15 9.96 -15 12 C-15.33 12 -15.66 12 -16 12 C-16.40488369 7.87018637 -16.39370285 5.63807013 -14.1875 2.0625 C-9.55316252 -0.93618896 -5.37184048 -0.42334995 0 0 Z " fill="#27876A" transform="translate(109,185)"/>
<path d="M0 0 C0.33 0 0.66 0 1 0 C1.25 5.625 1.25 5.625 -1 9 C-3.625 9.1875 -3.625 9.1875 -6 9 C-5.38125 8.814375 -4.7625 8.62875 -4.125 8.4375 C-0.94397134 6.28562767 -0.80548053 3.62466237 0 0 Z " fill="#218869" transform="translate(243,226)"/>
<path d="M0 0 C3 3 3 3 3.3125 6.5625 C3 10 3 10 1 12 C0.67 8.04 0.34 4.08 0 0 Z " fill="#228668" transform="translate(274,187)"/>
<path d="M0 0 C0.99 0.66 1.98 1.32 3 2 C1.3545622 3.68762851 -0.31288577 5.3540349 -2 7 C-2.33 7 -2.66 7 -3 7 C-3 5.35 -3 3.7 -3 2 C-2.01 2.33 -1.02 2.66 0 3 C0 2.01 0 1.02 0 0 Z " fill="#188B69" transform="translate(252,241)"/>
<path d="M0 0 C0.66 0.33 1.32 0.66 2 1 C1 4 1 4 -1 5 C-1.65772428 8.02934491 -1.65772428 8.02934491 -2 11 C-2.33 11 -2.66 11 -3 11 C-3.08096803 9.54257537 -3.13917774 8.08387193 -3.1875 6.625 C-3.22230469 5.81289062 -3.25710937 5.00078125 -3.29296875 4.1640625 C-3.19628906 3.44992188 -3.09960938 2.73578125 -3 2 C-2.01 1.34 -1.02 0.68 0 0 Z " fill="#138F69" transform="translate(155,179)"/>
</svg>
